<?xml version="1.0" encoding="UTF-8" standalone="no"?>
<!-- Created with Inkscape (http://www.inkscape.org/) -->
<svg
   xmlns:dc="http://purl.org/dc/elements/1.1/"
   xmlns:cc="http://web.resource.org/cc/"
   xmlns:rdf="http://www.w3.org/1999/02/22-rdf-syntax-ns#"
   xmlns:svg="http://www.w3.org/2000/svg"
   xmlns="http://www.w3.org/2000/svg"
   xmlns:sodipodi="http://sodipodi.sourceforge.net/DTD/sodipodi-0.dtd"
   xmlns:inkscape="http://www.inkscape.org/namespaces/inkscape"
   width="744.09448819"
   height="1052.3622047"
   id="svg2163"
   sodipodi:version="0.32"
   inkscape:version="0.45.1"
   sodipodi:docbase="C:\Documents and Settings\mphilpot\Desktop"
   sodipodi:docname="logo.svg"
   inkscape:output_extension="org.inkscape.output.svg.inkscape">
  <defs
     id="defs2165" />
  <sodipodi:namedview
     id="base"
     pagecolor="#ffffff"
     bordercolor="#666666"
     borderopacity="1.0"
     gridtolerance="10000"
     guidetolerance="10"
     objecttolerance="10"
     inkscape:pageopacity="0.0"
     inkscape:pageshadow="2"
     inkscape:zoom="0.35"
     inkscape:cx="375"
     inkscape:cy="520"
     inkscape:document-units="px"
     inkscape:current-layer="layer1"
     inkscape:window-width="744"
     inkscape:window-height="573"
     inkscape:window-x="66"
     inkscape:window-y="87" />
  <metadata
     id="metadata2168">
    <rdf:RDF>
      <cc:Work
         rdf:about="">
        <dc:format>image/svg+xml</dc:format>
        <dc:type
           rdf:resource="http://purl.org/dc/dcmitype/StillImage" />
      </cc:Work>
    </rdf:RDF>
  </metadata>
  <g
     inkscape:label="Layer 1"
     inkscape:groupmode="layer"
     id="layer1">
    <path
       style="fill:#000000;fill-opacity:1;stroke:#ffffff;stroke-width:2;stroke-miterlimit:4;stroke-dasharray:none;stroke-opacity:1"
       d="M 119.30353,433.99881 L 157.16264,396.49881 L 156.66264,289.89457 L 156.16264,183.29032 L 118.91264,145.48378 C 98.425144,124.69017 81.662634,107.63708 81.662634,107.58802 C 81.662624,107.53896 143.08761,107.49882 218.16261,107.49882 C 293.23761,107.49882 354.55012,107.77713 354.41262,108.11729 C 354.27513,108.45745 344.72765,118.80745 333.19599,131.11729 L 312.22934,153.49882 L 296.69599,154.11395 C 271.46049,155.11329 260.74141,158.49892 246.59807,169.93744 C 223.14201,188.90767 210.5134,218.09753 211.96056,249.99881 C 212.8579,269.77968 217.04734,281.41143 229.58962,298.9449 C 237.17006,309.54198 240.05447,314.82575 241.02037,319.88422 C 241.80944,324.01663 240.34255,329.86473 237.66222,333.27221 C 235.81532,335.62016 235.71573,336.7896 236.30907,349.1614 C 236.90027,361.48852 236.78735,362.83404 234.84147,366.64828 C 233.68202,368.92098 231.58629,371.61709 230.18428,372.63964 L 227.63518,374.49881 L 230.14891,378.19576 C 233.67313,383.37883 233.37556,386.38199 228.8256,391.55102 C 220.08585,401.47989 214.66264,416.7855 214.66264,431.52228 C 214.66264,438.95359 216.02557,449.69507 217.10552,450.77502 C 217.34134,451.01084 222.40066,448.27414 228.34846,444.69347 C 251.31888,430.8649 272.98564,421.67055 285.51172,420.43608 C 288.61973,420.12978 292.56113,419.73918 294.2704,419.56807 C 297.95103,419.19963 308.27189,420.63023 311.28496,421.92652 C 312.87207,422.60932 345.11891,459.46062 354.59177,471.4313 C 351.1683,471.415 338.03604,471.49881 217.9685,471.49881 L 81.444434,471.49881 L 119.30353,433.99881 z M 369.09631,471.51126 C 371.2293,467.52659 379.94995,458.16029 384.63576,455.60996 C 392.29441,451.4416 399.47443,451.05982 407.77285,454.37971 C 416.64871,457.93061 421.95299,457.8623 425.66602,454.14927 C 429.07692,450.73839 430.34622,445.13269 428.82782,440.18543 C 428.22272,438.21373 427.82932,436.49877 427.95372,436.37443 C 428.07802,436.25008 432.45092,438.58855 437.67122,441.57103 C 448.19662,447.58446 459.14932,452.42403 465.42382,453.83382 C 469.05152,454.64891 469.78662,454.4957 471.62202,452.54202 L 473.70442,450.32545 L 471.28652,445.91213 C 469.95672,443.4848 466.32042,434.74881 463.20582,426.49881 C 451.72442,396.08658 447.30982,386.92339 438.58862,375.40104 L 433.66262,368.89289 L 433.66262,349.94585 C 433.66262,335.43612 433.95542,331.00705 434.91262,331.034 C 435.60012,331.05336 440.40842,331.6691 445.59762,332.40231 C 457.37862,334.0669 461.66322,333.21323 461.66132,329.20181 C 461.66062,327.71516 460.54322,321.88902 459.17822,316.25482 C 455.17952,299.7496 446.99912,280.18281 438.63872,267.12606 L 434.55822,260.75331 L 434.53092,228.62606 C 434.51592,210.95607 434.20192,193.06623 433.83312,188.87086 L 433.16262,181.24292 L 401.66264,145.07722 C 384.33764,125.18608 370.05003,108.59365 369.91241,108.20516 C 369.77478,107.81668 404.42478,107.61902 446.91242,107.76593 C 531.20982,108.0574 529.50802,107.94665 542.05012,113.95718 C 555.67332,120.48581 567.55812,133.87959 572.70042,148.49882 L 575.16262,155.49882 L 575.43052,287.76911 L 575.69842,420.03942 L 573.11752,427.76911 C 566.70282,446.97995 550.70842,462.16367 530.16262,468.54657 L 522.16262,471.03192 L 445.51102,471.26536 C 375.92668,471.10272 371.51263,471.49364 369.09631,471.51126 z M 408.66264,447.3777 C 407.83764,447.07251 404.01264,445.29809 400.16264,443.43457 C 352.66343,420.44337 308.19058,406.93356 284.29474,408.2366 C 270.89366,408.96737 261.47686,413.01709 231.28191,431.03493 L 227.40118,433.35063 L 227.8342,424.42472 C 228.43473,412.04568 232.93241,402.6368 243.30523,392.06025 C 247.3518,387.93419 250.66264,384.18356 250.66264,383.72551 C 250.66264,383.26747 249.53764,381.23712 248.16264,379.21362 C 245.4213,375.17938 245.05372,373.00773 246.81421,371.24724 C 247.68297,370.37848 249.09509,371.09334 252.56421,374.15805 C 258.17058,379.11087 269.0668,385.59694 279.21163,390.02017 C 285.89251,392.93309 286.94562,393.1444 288.25522,391.8348 C 289.56482,390.5252 289.00527,389.78059 283.45003,385.44046 C 269.54573,374.57746 245.66264,348.2489 245.66264,343.78388 C 245.66264,342.63092 246.8649,340.07012 248.33433,338.0932 C 249.80376,336.11629 251.12178,334.34329 251.26327,334.15321 C 251.40475,333.96313 254.28888,336.11148 257.67245,338.92731 C 270.04884,349.22705 292.34078,362.72003 295.18044,361.63035 C 297.66797,360.6758 296.91221,359.36997 290.41264,353.39227 C 256.68688,322.37446 235.73891,294.12746 227.08491,267.99881 C 224.5168,260.24503 224.27005,258.22584 224.2742,244.99881 C 224.2785,231.30671 224.45818,229.96949 227.4991,220.99881 C 231.85894,208.13732 240.61088,190.5923 245.70631,184.49881 C 253.69487,174.94552 264.57291,169.10111 280.50975,165.8001 C 292.03667,163.41252 302.17287,163.87215 309.73509,167.12533 C 314.49261,169.17196 314.62749,169.33514 312.68586,170.69511 C 309.92721,172.62734 307.66264,177.24878 307.66264,180.94627 C 307.66264,184.42702 313.11538,191.14733 317.98121,193.66355 C 322.24665,195.86929 327.37916,195.61375 330.09718,193.06031 C 331.96563,191.30499 332.49166,189.45047 333.03295,182.71031 C 334.90007,159.46084 343.10774,140.22663 354.6771,131.98853 L 357.59098,129.91366 L 355.17394,135.20624 C 351.52381,143.1989 349.66264,151.57904 349.66264,160.02153 L 349.66264,167.62404 L 354.72413,169.83412 C 362.38871,173.18082 363.85697,173.0711 365.90194,168.99882 C 366.93002,166.95154 367.66747,163.21597 367.67865,159.99882 L 367.69777,154.49882 L 371.545,163.99882 C 376.35559,175.87764 381.70509,184.95185 396.59992,206.49881 C 409.50659,225.16969 415.29981,234.68416 418.75895,242.89165 L 421.03183,248.2845 L 418.35651,250.58571 L 415.68119,252.88692 L 421.0906,258.29634 C 430.96072,268.16646 436.70012,278.95403 445.67222,304.49881 C 448.56982,312.74881 451.54102,320.69056 452.27472,322.14715 C 453.50442,324.58823 453.43482,324.83881 451.38572,325.34896 C 450.16302,325.65337 445.46152,325.07542 440.93802,324.06462 C 433.26652,322.35043 432.49342,322.33685 429.44372,323.86281 C 426.83282,325.1692 426.04822,326.28718 425.5493,329.41189 C 425.04282,332.58376 423.66843,334.49169 418.29355,339.48437 C 414.64655,342.87203 411.66264,346.26321 411.66264,347.02032 C 411.66264,347.77744 413.91264,350.5093 416.66264,353.09114 C 419.41264,355.67297 421.66264,358.43866 421.66264,359.23711 C 421.66264,361.26572 418.97808,363.39741 413.32368,365.85871 C 410.52072,367.0788 408.65863,368.48679 408.89806,369.20506 C 409.12539,369.88707 411.88502,371.71426 415.03056,373.26549 C 422.25988,376.83063 431.25612,385.78021 436.51522,394.63879 C 438.75522,398.4118 443.55282,408.24881 447.17662,416.49881 C 450.80042,424.74881 455.09612,433.86131 456.72262,436.74881 C 458.34902,439.63631 459.48822,441.99881 459.25412,441.99881 C 458.37572,441.99881 449.64252,437.98211 433.29802,430.06063 C 414.09753,420.75496 404.55759,416.80806 394.58808,414.04537 C 387.3588,412.04203 373.66264,410.28139 373.66264,411.35541 C 373.66264,413.09892 382.5477,417.38826 393.58816,420.97462 C 406.75398,425.25137 412.63928,428.17782 416.5994,432.41689 C 418.40115,434.34556 418.57137,434.68051 419.31832,435.58591 C 420.08028,436.50951 420.07614,437.54977 420.09978,439.08052 C 420.12198,440.51765 420.07583,444.411 418.25187,445.92476 C 416.59628,447.29877 410.81654,448.17451 408.66264,447.3777 z M 421.66264,415.89994 C 421.66264,415.29556 420.96595,413.33291 420.11445,411.5385 C 418.45609,408.04377 415.99028,406.5261 410.2082,405.44138 C 408.16309,405.05771 406.74654,404.26584 406.96674,403.62936 C 407.38321,402.42557 410.33918,402.40325 415.04315,403.56838 C 421.48493,405.16396 415.27879,399.67271 408.16264,397.48045 C 406.30977,396.90964 406.29095,396.79228 407.90678,395.88515 C 410.51868,394.41883 415.98042,395.81823 422.15341,399.53541 C 425.18349,401.36003 427.66262,402.47026 427.66262,402.00258 C 427.66262,400.00813 421.89716,394.54774 417.94567,392.79981 C 412.80318,390.52504 412.43461,388.99881 417.02778,388.99881 C 420.36756,388.99881 424.8659,391.67948 427.46932,395.22118 C 430.01442,398.68348 430.75682,396.93823 428.47662,392.85318 C 426.01872,388.4497 419.73873,383.29903 410.55982,378.15834 C 402.6348,373.71988 399.49255,370.33625 399.86314,366.63996 C 400.18017,363.47802 401.39503,362.79275 408.91264,361.53539 C 411.48139,361.10575 412.66264,360.38726 412.66264,359.25446 C 412.66264,356.81357 403.38538,348.24937 397.33887,345.57489 C 392.51694,343.44206 380.13652,340.11359 372.83965,337.0095 L 367.33834,333.92643 L 368.64733,343.16935 C 368.6288,350.82726 367.37201,353.47836 365.14433,350.55863 C 362.62157,347.25213 359.90659,338.7903 359.17421,331.95142 C 358.27135,323.52067 359.77426,317.9879 364.34003,312.93414 C 368.90368,307.88272 374.13962,306.34164 391.16264,305.03952 C 408.09608,303.74425 412.17468,302.54256 417.95997,297.14419 C 420.31447,294.94715 420.90569,294.76862 421.69466,296.01637 C 423.91244,299.52381 422.79603,301.67673 417.6506,303.81507 C 412.53945,305.93917 410.98744,307.79689 412.03764,310.53366 C 412.55556,311.88334 412.95527,311.85318 415.35065,310.28366 C 418.86183,307.98305 428.61592,308.00651 433.16262,310.19024 C 437.65642,312.34853 437.87782,313.10758 441.07912,316.12989 C 444.34982,319.21766 447.45242,321.1241 447.45242,321.1241 L 446.70492,318.14253 C 445.10172,311.74708 434.62442,289.78119 430.57412,282.82475 C 428.22812,278.79548 423.43593,272.61726 419.92481,269.09537 C 414.09752,263.25022 413.40273,262.83015 411.9556,264.27728 C 410.50848,265.7244 410.60097,266.1368 413.01645,269.00744 C 414.47185,270.73709 415.66264,272.56067 415.66264,273.05984 C 415.66264,273.55901 412.47252,273.86198 408.57348,273.73312 C 401.99471,273.51568 401.32874,273.68821 399.32348,276.12944 C 395.306,281.02038 388.51729,283.28879 378.10369,283.21991 C 370.0176,283.16642 361.06505,280.82295 346.59894,274.97305 C 340.03398,272.31827 334.66264,270.30104 334.66264,270.49033 C 334.66264,270.67962 335.74842,273.00896 337.07548,275.66665 C 340.18524,281.89451 341.07374,288.23139 339.71596,294.49881 C 339.1202,297.24881 334.81346,307.14881 330.14543,316.49881 C 319.72017,337.38046 318.30032,343.42303 321.07893,355.08394 C 327.19968,380.7708 340.81722,392.59306 375.16264,402.03752 C 397.52346,408.1864 408.59229,411.69733 414.16264,414.40797 C 419.76923,417.13624 421.66264,417.5129 421.66264,415.89994 z M 350.15475,331.60683 C 347.8312,325.70356 346.88013,313.25272 348.02289,308.69961 C 348.49801,306.80657 349.14581,306.36852 350.95791,306.71492 C 353.18068,307.13983 352.20548,311.7827 352.02803,316.49668 C 351.90266,319.82705 352.17007,322.04902 352.83013,328.88533 C 353.37896,334.56962 355.34008,342.25546 355.24585,342.40405 C 355.15162,342.55264 351.4039,334.78042 350.15475,331.60683 z M 406.45248,340.02133 C 411.74822,337.19876 413.95643,335.2832 413.24377,334.13008 C 412.3583,332.69735 402.57231,329.18706 393.19709,326.9392 C 383.19563,324.5412 375.40491,324.3995 373.59307,326.58263 C 371.37225,329.25856 373.75131,331.27953 383.25382,334.78927 C 388.15367,336.59903 394.18764,338.92511 396.66264,339.95834 C 402.39807,342.35268 402.08219,342.35065 406.45248,340.02133 z M 310.09168,333.5949 C 312.11944,326.61965 312.09616,316.62739 310.03807,310.58723 C 308.66313,306.55201 308.20314,306.02973 307.04456,307.18832 C 305.99826,308.23461 305.90978,309.37374 306.66913,312.02143 C 308.7265,319.19505 307.24945,332.99881 304.42448,332.99881 C 303.8511,332.99881 300.17288,329.73631 296.25066,325.74881 C 283.55099,312.83778 271.76374,292.53396 267.66558,276.51031 C 262.91732,257.94478 262.9757,230.58665 267.79836,214.28503 L 269.93248,207.07124 L 272.92964,211.28503 C 274.57808,213.60261 279.85951,219.54881 284.66615,224.49881 C 294.22226,234.33993 300.47255,243.24785 303.25947,250.99802 C 305.17195,256.31645 307.11005,257.8552 306.09441,253.24881 C 303.28827,240.52179 299.95429,234.68832 287.66264,220.99881 C 279.21407,211.58943 272.97992,202.71987 272.14589,198.92254 C 271.7927,197.31449 271.12216,195.99881 270.65581,195.99881 C 269.26141,195.99881 264.6869,206.58402 262.66525,214.48861 C 257.20256,235.84751 257.84646,261.44362 264.35097,281.49881 C 269.48018,297.3136 278.00743,311.93078 288.95794,323.67943 C 294.78129,329.92721 305.88068,338.99881 307.70169,338.99881 C 308.15216,338.99881 309.22765,336.56705 310.09168,333.5949 z M 419.78112,328.24881 C 419.84629,327.28631 419.86854,326.04881 419.83058,325.49881 C 419.79261,324.94881 421.53929,323.26559 423.71209,321.75831 C 429.84972,317.50065 428.87242,315.63085 422.0084,318.49881 C 416.8904,320.63725 414.60971,320.39016 408.16264,316.99881 C 403.46012,314.52514 401.27544,313.99881 395.71032,313.99881 C 388.98118,313.99881 382.66264,315.45893 382.66264,317.01393 C 382.66264,318.1159 389.12276,320.38817 400.91332,323.43337 C 406.27619,324.81847 412.35119,326.84243 414.41332,327.93107 C 419.08152,330.39551 419.63357,330.42819 419.78112,328.24881 z M 298.66264,289.65774 C 298.66264,287.82015 297.99251,284.10765 297.17346,281.40774 C 295.41975,275.62679 295.23665,269.66329 296.72735,266.87789 C 297.61495,265.2194 297.2603,264.357 294.59539,261.69363 C 292.83721,259.93648 288.55595,252.64881 285.08147,245.49881 C 279.10228,233.19447 274.40699,225.92113 273.21356,227.11456 C 272.91789,227.41023 273.73976,229.86764 275.03995,232.57548 C 276.34013,235.28331 280.61213,244.52951 284.53328,253.12259 C 291.16857,267.66363 291.66264,269.22336 291.66264,275.62919 C 291.66264,283.43127 292.82865,288.41979 295.28734,291.1366 C 297.73636,293.84273 298.66264,293.43689 298.66264,289.65774 z M 395.14015,262.8271 C 401.40005,259.9749 404.00891,247.55 400.24125,238.53271 C 394.45046,224.67341 377.50314,212.81415 367.1881,215.40306 C 364.29041,216.13034 360.50902,221.11427 362.38139,221.73839 C 365.2898,222.70786 371.83547,227.84451 374.13599,230.96269 C 377.19127,235.10389 377.45183,240.20962 374.74597,242.91548 C 373.69181,243.96964 373.09181,245.09464 373.41264,245.41548 C 374.7463,246.74914 380.57751,245.85361 383.00787,243.94189 L 385.62281,241.88498 L 387.61406,245.15932 C 389.91429,248.94176 391.17382,255.82596 390.24367,259.53199 C 389.14976,263.89048 390.62596,264.88391 395.14015,262.8271 z M 345.99575,210.22969 C 349.15334,206.39957 350.43374,204.44626 354.73725,203.40828 C 359.04076,202.37031 365.15003,202.80953 371.69133,205.16911 C 375.62266,206.58723 379.04563,205.94916 379.29792,205.69686 C 379.55021,205.44457 377.51348,203.59152 374.77185,201.57898 C 361.32589,191.70873 348.26796,192.55948 344.0324,204.64373 C 343.63664,205.77286 346.40186,202.26408 348.81841,200.18548 C 350.0415,199.13343 352.90347,197.78068 355.71105,197.14047 C 356.8175,196.88817 359.97806,196.71983 363.39669,197.58936 C 365.15498,198.03658 367.03024,199.24533 368.62765,199.84092 C 371.61434,200.9545 376.80248,204.26313 374.8672,204.16445 C 373.36297,204.08774 364.87557,200.59325 358.86324,200.49554 C 356.88021,200.46331 355.00782,200.77056 353.31079,201.32453 C 350.84783,202.12852 349.03987,203.76366 348.28445,204.52798 C 345.50514,207.34004 345.01463,212.05153 345.99575,210.22969 z "
       id="path4212"
       sodipodi:nodetypes="cccccssscccssssssscccssssssscccccssssssscccscccssssccccccsssccccccccccsscccsssssssssssssssssssssssssccccccscccscccccssssssssssssssssssssssszsccssssssssssssssssscccssssssssszzccssssssssssssssssccsssssccsssssccsssssscccssssssssssccssssssssccsssssssssccsssssscccsccsssssssssssssc"
       inkscape:export-xdpi="49.247459"
       inkscape:export-ydpi="49.247459" />
  </g>
</svg>
